<svg width="30" height="30" viewBox="0 0 30 30" fill="none" xmlns="http://www.w3.org/2000/svg">
<path d="M19.6494 13.8336C20.097 13.8336 20.4622 13.9744 20.745 14.256C20.8863 14.3968 20.9982 14.5494 21.0807 14.7136C21.1632 14.8779 21.2162 15.1947 21.2397 15.6641H18.0591C18.1062 15.1947 18.171 14.8838 18.2534 14.7312C18.3359 14.5787 18.436 14.432 18.5538 14.2912C18.8366 13.9862 19.2017 13.8336 19.6494 13.8336ZM12.0512 13.4112C11.9098 13.5051 11.7508 13.599 11.5741 13.6928C11.3974 13.7867 11.1912 13.8336 10.9556 13.8336H9.25925V11.0528H10.7082C10.9674 11.0528 11.1912 11.0822 11.3797 11.1408C11.5682 11.1995 11.7449 11.2523 11.9098 11.2992C12.2632 11.487 12.4399 11.8507 12.4399 12.3904C12.4399 12.9067 12.3103 13.247 12.0512 13.4112ZM12.0158 15.7345C12.2279 15.8518 12.3869 15.9867 12.4929 16.1393C12.5989 16.2918 12.6519 16.5089 12.6519 16.7905C12.6519 17.4945 12.4281 17.9638 11.9805 18.1985C11.7213 18.3393 11.3797 18.4097 10.9556 18.4097H9.25925V15.6641H10.9909C11.2265 15.6641 11.4268 15.6582 11.5917 15.6465C11.7567 15.6347 11.898 15.6641 12.0158 15.7345ZM14.8077 0C16.8575 0 18.7777 0.387201 20.5683 1.1616C22.3588 1.93601 23.9256 2.98614 25.2686 4.31201C26.6115 5.63789 27.6717 7.19842 28.4492 8.99363C29.2267 10.7888 29.6155 12.7072 29.6155 14.7488C29.6155 16.7905 29.2267 18.703 28.4492 20.4865C27.6717 22.2699 26.6115 23.8305 25.2686 25.1681C23.9256 26.5057 22.3588 27.5617 20.5683 28.3361C18.7777 29.1105 16.8575 29.4977 14.8077 29.4977C12.758 29.4977 10.8319 29.1105 9.02953 28.3361C7.22716 27.5617 5.66039 26.5057 4.32923 25.1681C2.99806 23.8305 1.94374 22.2699 1.16624 20.4865C0.388747 18.703 0 16.7905 0 14.7488C0 12.7072 0.388747 10.7888 1.16624 8.99363C1.94374 7.19842 2.99806 5.63789 4.32923 4.31201C5.66039 2.98614 7.22716 1.93601 9.02953 1.1616C10.8319 0.387201 12.758 0 14.8077 0ZM14.3483 18.6913C14.6546 18.175 14.8077 17.5883 14.8077 16.9313C14.8077 16.3211 14.6781 15.7814 14.419 15.3121C14.1363 14.8662 13.7357 14.5376 13.2174 14.3264C13.5472 14.1622 13.8064 13.951 13.9949 13.6928C14.3247 13.2939 14.4897 12.7542 14.4897 12.0736C14.4897 11.4166 14.3247 10.8534 13.9949 10.384C13.5001 9.60963 12.6284 9.22243 11.3797 9.22243H6.46734V20.2753H11.0616C11.3208 20.2753 11.5682 20.2635 11.8038 20.2401C12.0394 20.2166 12.2632 20.1814 12.4752 20.1345C12.8993 20.0406 13.2881 19.8529 13.6415 19.5713C13.9478 19.2897 14.1834 18.9963 14.3483 18.6913ZM17.5643 11.0528H21.2751V9.22243H17.5643V11.0528ZM23.1128 16.5793V15.9457L23.0951 15.4529L23.0774 15.0657C22.9832 14.479 22.7947 13.9627 22.512 13.5168C22.3471 13.2352 22.1645 13.0006 21.9642 12.8128C21.7639 12.6251 21.546 12.4726 21.3104 12.3552C20.7921 12.0971 20.2384 11.968 19.6494 11.968C18.6363 11.968 17.7999 12.3318 17.1402 13.0592C16.5041 13.7632 16.186 14.7958 16.186 16.1569C16.186 17.5883 16.5394 18.6326 17.2462 19.2897C17.9295 19.8998 18.7541 20.2049 19.7201 20.2049C20.851 20.2049 21.7227 19.8059 22.3353 19.0081C22.5473 18.7734 22.7064 18.5505 22.8124 18.3393C22.9184 18.1281 22.995 17.8465 23.0421 17.4945H21.169C21.1219 17.8465 21.063 18.0283 20.9923 18.0401C20.9217 18.0518 20.851 18.0811 20.7803 18.1281C20.6625 18.2454 20.5152 18.351 20.3385 18.4449C20.1618 18.5387 19.9675 18.5857 19.7554 18.5857C19.3785 18.5857 19.0486 18.4801 18.7659 18.2689C18.5303 18.1046 18.3536 17.8993 18.2358 17.6529C18.118 17.4065 18.0473 17.0486 18.0237 16.5793H23.1128Z" fill="#E33373"/>
</svg>
