<svg width="30" height="30" viewBox="0 0 30 30" fill="none" xmlns="http://www.w3.org/2000/svg">
<path d="M14.79 0C16.8422 0 18.7647 0.387664 20.5574 1.16299C22.3502 1.93832 23.9188 2.98971 25.2634 4.31717C26.6079 5.64462 27.6694 7.20115 28.4478 8.98675C29.2262 10.7724 29.6155 12.6872 29.6155 14.7312C29.6155 16.7753 29.2262 18.6901 28.4478 20.4757C27.6694 22.2613 26.6079 23.8237 25.2634 25.1629C23.9188 26.5021 22.3502 27.5594 20.5574 28.3347C18.7647 29.11 16.8422 29.4977 14.79 29.4977C12.7378 29.4977 10.8154 29.11 9.02263 28.3347C7.2299 27.5594 5.66716 26.5021 4.3344 25.1629C3.00165 23.8237 1.94606 22.2613 1.16763 20.4757C0.389212 18.6901 0 16.7753 0 14.7312C0 12.6872 0.389212 10.7724 1.16763 8.98675C1.94606 7.20115 3.00165 5.64462 4.3344 4.31717C5.66716 2.98971 7.2299 1.93832 9.02263 1.16299C10.8154 0.387664 12.7378 0 14.79 0ZM10.1903 11.066H6.47506V23.0484H10.1903V11.066ZM8.31497 10.1145C8.83392 10.1145 9.27621 9.93829 9.64183 9.58587C10.0075 9.23345 10.1903 8.7988 10.1903 8.28191C10.1903 7.76503 10.0075 7.33037 9.64183 6.97795C9.27621 6.62553 8.83392 6.44932 8.31497 6.44932C7.79602 6.44932 7.35964 6.62553 7.00581 6.97795C6.65198 7.33037 6.47506 7.76503 6.47506 8.28191C6.47506 8.7988 6.65198 9.23345 7.00581 9.58587C7.35964 9.93829 7.79602 10.1145 8.31497 10.1145ZM23.1404 16.1057C23.1404 15.2599 22.9045 14.4317 22.4327 13.6211C21.961 12.8105 21.3477 12.1938 20.5928 11.7709C19.9088 11.395 19.1126 11.1953 18.2045 11.1718C17.2963 11.1483 16.4648 11.301 15.71 11.6299V11.066H12.0302V23.0484H15.71V15.718L17.2668 14.9779C17.4555 14.8839 17.7091 14.837 18.0276 14.837C18.346 14.837 18.5996 14.8957 18.7883 15.0132C18.9298 15.0837 19.0714 15.2364 19.2129 15.4713C19.3544 15.7063 19.4252 15.9177 19.4252 16.1057V23.0484H23.1404V16.1057Z" fill="#E33373"/>
</svg>
