<svg width="42" height="42" viewBox="0 0 42 42" fill="none" xmlns="http://www.w3.org/2000/svg">
<path d="M20.9749 0C23.8853 0 26.6117 0.549777 29.1541 1.64933C31.6965 2.74888 33.9211 4.23994 35.828 6.12251C37.7348 8.00508 39.2401 10.2125 40.3441 12.7448C41.448 15.2771 42 17.9927 42 20.8915C42 23.7903 41.448 26.5059 40.3441 29.0382C39.2401 31.5705 37.7348 33.7863 35.828 35.6855C33.9211 37.5847 31.6965 39.0841 29.1541 40.1837C26.6117 41.2832 23.8853 41.833 20.9749 41.833C18.0645 41.833 15.3381 41.2832 12.7957 40.1837C10.2533 39.0841 8.03704 37.5847 6.14695 35.6855C4.25687 33.7863 2.75986 31.5705 1.65591 29.0382C0.551971 26.5059 0 23.7903 0 20.8915C0 17.9927 0.551971 15.2771 1.65591 12.7448C2.75986 10.2125 4.25687 8.00508 6.14695 6.12251C8.03704 4.23994 10.2533 2.74888 12.7957 1.64933C15.3381 0.549777 18.0645 0 20.9749 0ZM14.4516 15.6936H9.1828V32.6867H14.4516V15.6936ZM11.7921 14.3442C12.5281 14.3442 13.1553 14.0943 13.6738 13.5945C14.1924 13.0947 14.4516 12.4783 14.4516 11.7452C14.4516 11.0122 14.1924 10.3958 13.6738 9.89598C13.1553 9.39618 12.5281 9.14628 11.7921 9.14628C11.0562 9.14628 10.4373 9.39618 9.93548 9.89598C9.43369 10.3958 9.1828 11.0122 9.1828 11.7452C9.1828 12.4783 9.43369 13.0947 9.93548 13.5945C10.4373 14.0943 11.0562 14.3442 11.7921 14.3442ZM32.8172 22.8407C32.8172 21.6412 32.4827 20.4667 31.8136 19.3172C31.1446 18.1676 30.2748 17.293 29.2043 16.6932C28.2342 16.1601 27.1051 15.8769 25.8172 15.8436C24.5293 15.8102 23.3501 16.0268 22.2796 16.4933V15.6936H17.0609V32.6867H22.2796V22.2909L24.4875 21.2414C24.7551 21.1081 25.1147 21.0414 25.5663 21.0414C26.0179 21.0414 26.3775 21.1247 26.6452 21.2913C26.8459 21.3913 27.0466 21.6079 27.2473 21.9411C27.448 22.2743 27.5484 22.5742 27.5484 22.8407V32.6867H32.8172V22.8407Z" fill="#E33373"/>
</svg>
