<svg width="42" height="42" viewBox="0 0 42 42" fill="none" xmlns="http://www.w3.org/2000/svg">
<path d="M27.8663 19.6186C28.5012 19.6186 29.0191 19.8183 29.42 20.2176C29.6205 20.4173 29.7792 20.6336 29.8962 20.8666C30.0131 21.0995 30.0883 21.5488 30.1217 22.2144H25.611C25.6778 21.5488 25.7697 21.1079 25.8866 20.8915C26.0036 20.6752 26.1456 20.4672 26.3126 20.2675C26.7136 19.8349 27.2315 19.6186 27.8663 19.6186ZM17.0907 19.0195C16.8902 19.1527 16.6647 19.2858 16.4141 19.4189C16.1635 19.552 15.8711 19.6186 15.537 19.6186H13.1313V15.6749H15.1862C15.5537 15.6749 15.8711 15.7165 16.1384 15.7997C16.4057 15.8829 16.6563 15.9578 16.8902 16.0243C17.3914 16.2906 17.642 16.8064 17.642 17.5719C17.642 18.304 17.4582 18.7866 17.0907 19.0195ZM17.0406 22.3143C17.3413 22.4807 17.5668 22.672 17.7172 22.8883C17.8675 23.1047 17.9427 23.4125 17.9427 23.8119C17.9427 24.8103 17.6253 25.4759 16.9905 25.8087C16.6229 26.0083 16.1384 26.1082 15.537 26.1082H13.1313V22.2144H15.5871C15.9212 22.2144 16.2053 22.2061 16.4391 22.1895C16.673 22.1728 16.8735 22.2144 17.0406 22.3143ZM21 0C23.9069 0 26.6301 0.549121 29.1695 1.64736C31.7088 2.7456 33.9308 4.23488 35.8353 6.11521C37.7399 7.99553 39.2434 10.2086 40.3461 12.7546C41.4487 15.3005 42 18.0211 42 20.9165C42 23.8119 41.4487 26.5242 40.3461 29.0535C39.2434 31.5828 37.7399 33.7959 35.8353 35.6928C33.9308 37.5898 31.7088 39.0874 29.1695 40.1856C26.6301 41.2839 23.9069 41.833 21 41.833C18.0931 41.833 15.3616 41.2839 12.8055 40.1856C10.2494 39.0874 8.02745 37.5898 6.13962 35.6928C4.25179 33.7959 2.75656 31.5828 1.65394 29.0535C0.551313 26.5242 0 23.8119 0 20.9165C0 18.0211 0.551313 15.3005 1.65394 12.7546C2.75656 10.2086 4.25179 7.99553 6.13962 6.11521C8.02745 4.23488 10.2494 2.7456 12.8055 1.64736C15.3616 0.549121 18.0931 0 21 0ZM20.3484 26.5075C20.7828 25.7754 21 24.9434 21 24.0115C21 23.1463 20.8162 22.3808 20.4487 21.7152C20.0477 21.0829 19.4797 20.617 18.7446 20.3175C19.2124 20.0845 19.58 19.785 19.8473 19.4189C20.315 18.8531 20.5489 18.0877 20.5489 17.1226C20.5489 16.1907 20.315 15.392 19.8473 14.7264C19.1456 13.6282 17.9093 13.0791 16.1384 13.0791H9.17184V28.7539H15.6874C16.0549 28.7539 16.4057 28.7373 16.7399 28.704C17.074 28.6707 17.3914 28.6208 17.6921 28.5543C18.2936 28.4211 18.8449 28.1549 19.3461 27.7555C19.7804 27.3562 20.1146 26.9402 20.3484 26.5075ZM24.9093 15.6749H30.1718V13.0791H24.9093V15.6749ZM32.778 23.5123V22.6138L32.753 21.9149L32.7279 21.3658C32.5943 20.5338 32.327 19.8016 31.926 19.1693C31.6921 18.7699 31.4332 18.4371 31.1492 18.1709C30.8652 17.9047 30.5561 17.6883 30.222 17.5219C29.4869 17.1559 28.7017 16.9728 27.8663 16.9728C26.4296 16.9728 25.2434 17.4887 24.3079 18.5203C23.4057 19.5187 22.9547 20.9831 22.9547 22.9133C22.9547 24.9434 23.4558 26.4243 24.4582 27.3562C25.4272 28.2215 26.5967 28.6541 27.9666 28.6541C29.5704 28.6541 30.8067 28.0883 31.6754 26.9568C31.9761 26.624 32.2017 26.3079 32.352 26.0083C32.5024 25.7088 32.611 25.3095 32.6778 24.8103H30.0215C29.9547 25.3095 29.8711 25.5674 29.7709 25.584C29.6706 25.6007 29.5704 25.6423 29.4702 25.7088C29.3031 25.8752 29.0943 26.025 28.8437 26.1581C28.5931 26.2912 28.3174 26.3578 28.0167 26.3578C27.4821 26.3578 27.0143 26.208 26.6134 25.9085C26.2792 25.6755 26.0286 25.3843 25.8616 25.0349C25.6945 24.6855 25.5943 24.1779 25.5609 23.5123H32.778Z" fill="#E33373"/>
</svg>
