<svg width="29" height="29" viewBox="0 0 29 29" fill="none" xmlns="http://www.w3.org/2000/svg">
<path fill-rule="evenodd" clip-rule="evenodd" d="M14.5 29C22.5081 29 29 22.5081 29 14.5C29 6.49187 22.5081 0 14.5 0C6.49187 0 0 6.49187 0 14.5C0 22.5081 6.49187 29 14.5 29ZM5 14.4623C5 9.24206 9.2589 5.00009 14.5 5.00009C19.7411 5.00009 24 9.24206 24 14.4623C24 19.6826 19.7411 23.9245 14.5 23.9245C9.2589 23.9245 5 19.6826 5 14.4623ZM16.3597 13.9732C18.1229 13.5001 19.9907 13.3958 21.8504 13.7005C21.6653 11.9444 20.8602 10.3647 19.6525 9.19394C18.5657 10.6133 17.2292 11.776 15.7398 12.626C15.9572 13.067 16.1665 13.5161 16.3597 13.9732ZM15.2729 11.6958C16.6496 10.91 17.8733 9.84347 18.8636 8.5364C17.6398 7.63829 16.1343 7.10103 14.5 7.10103C13.7432 7.10103 13.0025 7.21329 12.3102 7.4298C13.4453 8.75291 14.4436 10.1722 15.2729 11.6958ZM14.3309 12.177C13.4936 10.6293 12.4631 9.17791 11.2797 7.84678C9.20254 8.85715 7.67288 10.7977 7.23814 13.1232C9.69364 13.5402 12.1572 13.1793 14.3309 12.177ZM7.12542 14.1496C7.11737 14.2538 7.10932 14.3581 7.10932 14.4623C7.10932 16.2906 7.79364 17.9666 8.90466 19.2576C10.5068 16.9 12.7852 15.192 15.3453 14.2859C15.1763 13.885 14.9831 13.4921 14.7898 13.0991L14.7898 13.0991C13.0669 13.901 11.1911 14.3501 9.2589 14.3501C8.55042 14.3501 7.84195 14.2618 7.12542 14.1496ZM15.7237 15.2722C13.2924 16.1222 11.1428 17.75 9.63729 19.9873C10.9415 21.126 12.6403 21.8236 14.5 21.8236C15.4097 21.8236 16.2792 21.6552 17.0843 21.3505C16.9072 19.2656 16.4483 17.2208 15.7237 15.2722ZM16.7301 14.9675C17.4305 16.868 17.8894 18.8566 18.0987 20.8854C20.2725 19.6746 21.7619 17.3972 21.8746 14.767C20.1275 14.4543 18.3805 14.5425 16.7301 14.9675Z" fill="#E33373"/>
</svg>
