<svg width="42" height="42" viewBox="0 0 42 42" fill="none" xmlns="http://www.w3.org/2000/svg">
<path fill-rule="evenodd" clip-rule="evenodd" d="M21 42C32.598 42 42 32.598 42 21C42 9.40202 32.598 0 21 0C9.40202 0 0 9.40202 0 21C0 32.598 9.40202 42 21 42ZM7.24138 20.9453C7.24138 13.3849 13.4094 7.24138 21 7.24138C28.5906 7.24138 34.7586 13.3849 34.7586 20.9453C34.7586 28.5057 28.5906 34.6492 21 34.6492C13.4094 34.6492 7.24138 28.5057 7.24138 20.9453ZM23.6934 20.2369C26.2469 19.5517 28.952 19.4007 31.6454 19.842C31.3773 17.2987 30.2113 15.0108 28.4623 13.3152C26.8882 15.3708 24.9527 17.0548 22.7956 18.2858C23.1104 18.9245 23.4136 19.5749 23.6934 20.2369ZM22.1193 16.9386C24.1132 15.8005 25.8855 14.2559 27.3196 12.3629C25.5473 11.0622 23.3669 10.2841 21 10.2841C19.904 10.2841 18.8313 10.4467 17.8285 10.7603C19.4726 12.6765 20.9184 14.7321 22.1193 16.9386ZM20.7551 17.6355C19.5425 15.394 18.0501 13.292 16.3361 11.3642C13.3278 12.8275 11.1124 15.6379 10.4828 19.0058C14.0391 19.6097 17.607 19.0871 20.7551 17.6355ZM10.3196 20.4924C10.3079 20.6433 10.2963 20.7943 10.2963 20.9453C10.2963 23.5932 11.2873 26.0204 12.8964 27.8902C15.2167 24.4758 18.5165 22.0021 22.2243 20.6898C21.9794 20.1091 21.6996 19.5401 21.4198 18.9711L21.4198 18.971C18.9245 20.1323 16.2078 20.7827 13.4094 20.7827C12.3834 20.7827 11.3573 20.655 10.3196 20.4924ZM22.7723 22.1183C19.251 23.3493 16.1378 25.7068 13.9575 28.947C15.8463 30.5961 18.3066 31.6065 21 31.6065C22.3176 31.6065 23.5768 31.3626 24.7428 30.9213C24.4863 27.9018 23.8217 24.9403 22.7723 22.1183ZM24.2298 21.6769C25.2442 24.4293 25.9088 27.3095 26.212 30.2477C29.3601 28.4941 31.5172 25.1958 31.6804 21.3866C29.1502 20.9337 26.62 21.0614 24.2298 21.6769Z" fill="#E33373"/>
</svg>
