<svg width="165" height="70" viewBox="0 0 165 70" fill="none" xmlns="http://www.w3.org/2000/svg">
<circle cx="3.5" cy="3.5" r="3.5" fill="#E33373"></circle>
<circle cx="22.5" cy="3.5" r="3.5" fill="#E33373"></circle>
<circle cx="41.5" cy="3.5" r="3.5" fill="#E33373"></circle>
<circle cx="60.5" cy="3.5" r="3.5" fill="#E33373"></circle>
<circle cx="79.5" cy="3.5" r="3.5" fill="#E33373"></circle>
<circle cx="98.5" cy="3.5" r="3.5" fill="#E33373"></circle>
<circle cx="117.5" cy="3.5" r="3.5" fill="#E33373"></circle>
<circle cx="136.5" cy="3.5" r="3.5" fill="#E33373"></circle>
<circle cx="155.5" cy="3.5" r="3.5" fill="#E33373"></circle>
<circle cx="3.5" cy="22.5" r="3.5" fill="#E33373"></circle>
<circle cx="22.5" cy="22.5" r="3.5" fill="#E33373"></circle>
<circle cx="41.5" cy="22.5" r="3.5" fill="#E33373"></circle>
<circle cx="60.5" cy="22.5" r="3.5" fill="#E33373"></circle>
<circle cx="79.5" cy="22.5" r="3.5" fill="#E33373"></circle>
<circle cx="98.5" cy="22.5" r="3.5" fill="#E33373"></circle>
<circle cx="117.5" cy="22.5" r="3.5" fill="#E33373"></circle>
<circle cx="136.5" cy="22.5" r="3.5" fill="#E33373"></circle>
<circle cx="155.5" cy="22.5" r="3.5" fill="#E33373"></circle>
<circle cx="3.5" cy="41.5" r="3.5" fill="#E33373"></circle>
<circle cx="22.5" cy="41.5" r="3.5" fill="#E33373"></circle>
<circle cx="41.5" cy="41.5" r="3.5" fill="#E33373"></circle>
<circle cx="60.5" cy="41.5" r="3.5" fill="#E33373"></circle>
<circle cx="79.5" cy="41.5" r="3.5" fill="#E33373"></circle>
<circle cx="98.5" cy="41.5" r="3.5" fill="#E33373"></circle>
<circle cx="117.5" cy="41.5" r="3.5" fill="#E33373"></circle>
<circle cx="136.5" cy="41.5" r="3.5" fill="#E33373"></circle>
<circle cx="155.5" cy="41.5" r="3.5" fill="#E33373"></circle>
<circle cx="3.5" cy="60.5" r="3.5" fill="#E33373"></circle>
<circle cx="22.5" cy="60.5" r="3.5" fill="#E33373"></circle>
<circle cx="41.5" cy="60.5" r="3.5" fill="#E33373"></circle>
<circle cx="60.5" cy="60.5" r="3.5" fill="#E33373"></circle>
<circle cx="79.5" cy="60.5" r="3.5" fill="#E33373"></circle>
<circle cx="98.5" cy="60.5" r="3.5" fill="#E33373"></circle>
<circle cx="117.5" cy="60.5" r="3.5" fill="#E33373"></circle>
<circle cx="136.5" cy="60.5" r="3.5" fill="#E33373"></circle>
<circle cx="155.5" cy="60.5" r="3.5" fill="#E33373"></circle>
</svg>
