<svg width="42" height="42" fill="none" xmlns="http://www.w3.org/2000/svg"><path fill-rule="evenodd" clip-rule="evenodd" d="M21 42c11.598 0 21-9.402 21-21S32.598 0 21 0 0 9.402 0 21s9.402 21 21 21ZM7.241 20.945c0-7.56 6.168-13.704 13.759-13.704 7.59 0 13.759 6.144 13.759 13.704 0 7.56-6.168 13.704-13.759 13.704-7.59 0-13.759-6.143-13.759-13.704Zm16.452-.708a18.876 18.876 0 0 1 7.952-.395 10.641 10.641 0 0 0-3.183-6.527 19.044 19.044 0 0 1-5.666 4.97c.314.64.618 1.29.897 1.952Zm-1.574-3.298a17.252 17.252 0 0 0 5.2-4.576A10.643 10.643 0 0 0 21 10.284c-1.096 0-2.169.163-3.172.476a35.711 35.711 0 0 1 4.291 6.179Zm-1.364.697a33.331 33.331 0 0 0-4.419-6.272c-3.008 1.463-5.224 4.274-5.853 7.642 3.556.604 7.124.081 10.272-1.37ZM10.32 20.492c-.012.151-.024.302-.024.453 0 2.648.991 5.075 2.6 6.945a18.895 18.895 0 0 1 9.328-7.2c-.245-.58-.524-1.15-.804-1.719-2.496 1.161-5.212 1.812-8.01 1.812-1.027 0-2.053-.128-3.09-.29Zm12.452 1.626a17.65 17.65 0 0 0-8.814 6.829A10.679 10.679 0 0 0 21 31.607c1.318 0 2.577-.244 3.743-.686a33.358 33.358 0 0 0-1.97-8.803Zm1.458-.441a35.245 35.245 0 0 1 1.982 8.57 10.662 10.662 0 0 0 5.468-8.86 17.47 17.47 0 0 0-7.45.29Z" fill="#E33373"/></svg>